<svg width="28" height="28" viewBox="0 0 28 28" fill="none" xmlns="http://www.w3.org/2000/svg">
<path fill-rule="evenodd" clip-rule="evenodd" d="M7.40948 6.34736C7.11659 6.05446 6.64171 6.05446 6.34882 6.34736C6.05593 6.64025 6.05593 7.11512 6.34882 7.40802L12.9395 13.9987L6.34882 20.5894C6.05593 20.8823 6.05593 21.3572 6.34882 21.6501C6.64171 21.943 7.11659 21.943 7.40948 21.6501L14.0002 15.0594L20.5909 21.6501C20.8838 21.943 21.3587 21.943 21.6516 21.6501C21.9445 21.3572 21.9445 20.8823 21.6516 20.5894L15.0609 13.9987L21.6516 7.40802C21.9445 7.11512 21.9445 6.64025 21.6516 6.34736C21.3587 6.05446 20.8838 6.05446 20.5909 6.34736L14.0002 12.9381L7.40948 6.34736Z" fill="#4097FF"/>
</svg>
