<svg width="24" height="24" viewBox="0 0 24 24" fill="none" xmlns="http://www.w3.org/2000/svg">
<mask id="mask0_1_145" style="mask-type:alpha" maskUnits="userSpaceOnUse" x="0" y="0" width="24" height="24">
<rect width="24" height="24" fill="#D9D9D9"/>
</mask>
<g mask="url(#mask0_1_145)">
<circle cx="12" cy="12" r="12" fill="#4097FF"/>
<path d="M12 18.4988C12.8284 18.4988 13.5 17.8272 13.5 16.9988C13.5 16.1704 12.8284 15.4988 12 15.4988C11.1716 15.4988 10.5 16.1704 10.5 16.9988C10.5 17.8272 11.1716 18.4988 12 18.4988Z" fill="#091124"/>
<path d="M12 4.99878C11.1907 4.99878 10.5525 5.68748 10.6141 6.49443L11.1247 13.1877C11.1596 13.6453 11.5411 13.9988 12 13.9988C12.4589 13.9988 12.8404 13.6453 12.8753 13.1877L13.3859 6.49443C13.4475 5.68748 12.8093 4.99878 12 4.99878Z" fill="#091124"/>
</g>
</svg>
