<svg width="180" height="66" viewBox="0 0 180 66" fill="none" xmlns="http://www.w3.org/2000/svg">
<path d="M134.189 0L148.399 13.9579H155.309L141.099 0H134.189Z" fill="#4097FF"/>
<path d="M109.961 0L124.171 13.9579H131.081L116.871 0H109.961Z" fill="#4097FF"/>
<path d="M97.8398 0L112.05 13.9579H118.97L104.75 0H97.8398Z" fill="#4097FF"/>
<path d="M122.07 0L136.28 13.9579H143.2L128.98 0H122.07Z" fill="#4097FF"/>
<path d="M146.301 0L160.511 13.9579H167.431L153.211 0H146.301Z" fill="#4097FF"/>
<path d="M158.42 0L172.63 13.9579H179.54L165.33 0H158.42Z" fill="#4097FF"/>
<path d="M39.23 13.9579H106.85L92.64 0H46.47L39.23 6.09985H0V57.5114L8 65.3695V13.9579H39.23Z" fill="#4097FF"/>
</svg>
