<svg width="21" height="21" viewBox="0 0 21 21" fill="none" xmlns="http://www.w3.org/2000/svg">
<path fill-rule="evenodd" clip-rule="evenodd" d="M12.9874 14.048C11.848 14.9568 10.4042 15.5 8.83342 15.5C5.15152 15.5 2.16675 12.5152 2.16675 8.83332C2.16675 5.15142 5.15152 2.16666 8.83342 2.16666C12.5153 2.16666 15.5001 5.15142 15.5001 8.83332C15.5001 10.4041 14.9569 11.8479 14.048 12.9873L14.0304 12.9697L12.9698 14.0303L12.9874 14.048ZM14.0535 15.1141C12.6382 16.2917 10.8185 17 8.83342 17C4.32309 17 0.666748 13.3436 0.666748 8.83332C0.666748 4.323 4.32309 0.666656 8.83342 0.666656C13.3437 0.666656 17.0001 4.323 17.0001 8.83332C17.0001 10.8184 16.2918 12.6381 15.1142 14.0534L19.8637 18.803C20.1566 19.0959 20.1566 19.5708 19.8637 19.8637C19.5709 20.1565 19.096 20.1565 18.8031 19.8637L14.0535 15.1141Z" fill="#4097FF"/>
</svg>
