<svg width="28" height="28" viewBox="0 0 28 28" fill="none" xmlns="http://www.w3.org/2000/svg">
<mask id="mask0_1_597" style="mask-type:alpha" maskUnits="userSpaceOnUse" x="0" y="0" width="28" height="28">
<rect width="28" height="28" fill="#D9D9D9"/>
</mask>
<g mask="url(#mask0_1_597)">
<rect width="28" height="28" rx="14" fill="#0E2E54"/>
<path d="M11.9198 19.132C12.0774 19.132 12.2227 19.1058 12.3558 19.0533C12.489 19.0008 12.6193 18.9096 12.7468 18.7798L20.7946 10.5864C20.9315 10.447 21 10.2838 21 10.0967C21 9.90957 20.9194 9.73393 20.7581 9.56974C20.6024 9.41127 20.4299 9.33203 20.2405 9.33203C20.0511 9.33203 19.8786 9.41127 19.7229 9.56974L11.9198 17.514L8.23209 13.7595C8.0952 13.6201 7.93486 13.5504 7.75107 13.5504C7.56728 13.5504 7.39475 13.6325 7.23349 13.7967C7.07783 13.9552 7 14.1308 7 14.3237C7 14.5165 7.07783 14.6921 7.23349 14.8506L11.0929 18.7798C11.2204 18.9096 11.3507 19.0008 11.4838 19.0533C11.617 19.1058 11.7623 19.132 11.9198 19.132Z" fill="white"/>
</g>
</svg>
