<svg width="24" height="24" viewBox="0 0 24 24" fill="none" xmlns="http://www.w3.org/2000/svg">
<mask id="mask0_1_133" style="mask-type:alpha" maskUnits="userSpaceOnUse" x="0" y="0" width="24" height="24">
<rect width="24" height="24" fill="#D9D9D9"/>
</mask>
<g mask="url(#mask0_1_133)">
<rect width="24" height="24" rx="12" fill="#4097FF"/>
<rect x="5.75" y="5.75" width="12.5" height="12.5" rx="6.25" stroke="#4097FF" stroke-opacity="0.15" stroke-width="11.5"/>
<path d="M10.217 16.4C10.352 16.4 10.4766 16.3775 10.5907 16.3325C10.7049 16.2875 10.8166 16.2093 10.9259 16.0981L17.824 9.07515C17.9413 8.9557 18 8.81579 18 8.65542C18 8.49504 17.9309 8.34448 17.7926 8.20375C17.6592 8.06792 17.5113 8 17.349 8C17.1866 8 17.0388 8.06792 16.9054 8.20375L10.217 15.0131L7.05608 11.795C6.93875 11.6755 6.80131 11.6158 6.64378 11.6158C6.48624 11.6158 6.33836 11.6862 6.20013 11.8269C6.06671 11.9627 6 12.1133 6 12.2785C6 12.4438 6.06671 12.5944 6.20013 12.7302L9.50816 16.0981C9.61745 16.2093 9.72916 16.2875 9.84329 16.3325C9.9574 16.3775 10.082 16.4 10.217 16.4Z" fill="#091124"/>
</g>
</svg>
