<svg width="28" height="28" viewBox="0 0 28 28" fill="none" xmlns="http://www.w3.org/2000/svg">
<path d="M11.1416 18.1022L21.2199 8.02392C21.3933 7.85028 21.5963 7.76162 21.8289 7.75792C22.0614 7.75423 22.2682 7.8429 22.4493 8.02392C22.6303 8.20495 22.7208 8.41281 22.7208 8.64751C22.7208 8.8824 22.6303 9.09035 22.4493 9.27138L11.8798 19.8589C11.6689 20.0697 11.4228 20.175 11.1416 20.175C10.8605 20.175 10.6144 20.0697 10.4034 19.8589L5.53259 14.988C5.35915 14.8144 5.27359 14.6083 5.27593 14.3697C5.27806 14.1313 5.36965 13.9216 5.55068 13.7406C5.7317 13.5596 5.93956 13.469 6.17426 13.469C6.40915 13.469 6.61711 13.5596 6.79813 13.7406L11.1416 18.1022Z" fill="#2A64F6"/>
</svg>
